Coordinates
version=1
nRows=9
nColumns=36
inDegrees=yes

Units are S.I. units (second, meters, Newtons, ...)
If the header above contains a line with 'inDegrees', this indicates whether rotational values are in degrees (yes) or radians (no).

endheader
time	pelvis_tilt	pelvis_list	pelvis_rotation	pelvis_tx	pelvis_ty	pelvis_tz	hip_flexion_r	hip_adduction_r	hip_rotation_r	knee_angle_r	knee_angle_r_beta	ankle_angle_r	subtalar_angle_r	mtp_angle_r	hip_flexion_l	hip_adduction_l	hip_rotation_l	knee_angle_l	knee_angle_l_beta	ankle_angle_l	subtalar_angle_l	mtp_angle_l	lumbar_extension	lumbar_bending	lumbar_rotation	arm_flex_r	arm_add_r	arm_rot_r	elbow_flex_r	pro_sup_r	arm_flex_l	arm_add_l	arm_rot_l	elbow_flex_l	pro_sup_l
      0.00000000	     -5.53177008	     -2.31493067	     -3.20485967	      0.74108431	      0.97349814	     -0.20270174	      4.42977869	     -1.66265230	     -4.07918485	      1.79022434	      0.03124531	     -0.13267538	     -9.20970691	     -6.29408147	      1.23780371	     -9.24834728	      1.50927298	      0.42871270	      0.00748245	      5.76945669	     -4.85301641	     -6.29408147	      3.24700902	      1.71984857	     -0.42466831	     29.78094376	     -2.45815153	     52.22253363	    124.72526690	     80.85370766	     26.81058023	     -0.68471443	     54.89790405	    119.64662067	     93.26017761
      0.01666670	     -4.77122749	     -1.65493352	     -4.13835761	      0.74223077	      0.97256247	     -0.20262817	      4.12076638	     -2.62756500	     -3.11845467	      2.64549979	      0.04617268	      1.96524785	     -6.87194048	     -6.62161933	      0.26667858	     -8.66020187	      0.67767265	      0.68318792	      0.01192388	      5.24816971	     -6.51091768	     -6.62161933	      1.42172328	      1.40821842	      1.53568397	     32.68421368	     -5.19519959	     60.67262664	    130.72656221	     96.29326438	     27.79574641	     -1.44750277	     52.99470284	    124.29984971	    103.07641336
      0.03333330	     -4.95568888	     -1.73715581	     -4.42574542	      0.73697138	      0.97338383	     -0.20642262	      4.75282653	     -2.59425742	     -1.93513296	      3.32420510	      0.05801832	      2.11309905	     -7.06549884	     -6.66943517	      0.48714200	     -8.78660404	      0.41318438	      0.79373711	      0.01385333	      5.49830777	     -6.34627241	     -6.66943517	      1.71620954	      1.69175768	      0.52199495	     32.96945829	     -3.53020603	     59.67441356	    130.20466846	     97.55114236	     27.50814272	     -1.75592929	     52.01327096	    124.98814904	    103.86567938
      0.05000000	     -4.87991273	     -1.63025368	     -4.21749172	      0.73653029	      0.97248288	     -0.20705919	      4.88611278	     -2.93632944	     -2.07033853	      3.69180344	      0.06443413	      2.73020589	     -6.16558159	     -7.18704065	      0.57878016	     -8.69358363	      0.10297151	      0.88687624	      0.01547891	      5.59761361	     -5.88781143	     -7.18704065	      1.51757849	      1.64793290	     -0.20832345	     33.37815201	     -2.54455372	     59.32942689	    129.37388189	    100.62337278	     28.07854912	     -1.43105668	     51.96300406	    125.37497612	    105.01445551
      0.06666670	     -4.78229257	     -1.51288444	     -4.24427235	      0.73554824	      0.97257848	     -0.20718231	      5.15277982	     -3.16491907	     -1.93075589	      4.34953237	      0.07591366	      3.39908472	     -5.95331794	     -7.34215630	      0.52034466	     -8.60074668	     -0.22683518	      0.94136598	      0.01642994	      5.67070367	     -5.20596707	     -7.34215630	      1.25150635	      1.68403747	     -0.64443410	     33.72933829	     -1.88993442	     59.50402362	    128.39667726	    100.60485234	     28.51311759	     -1.09054473	     52.32297735	    125.52030166	    103.44757469
      0.08333330	     -4.75285436	     -1.31968513	     -4.42970197	      0.73516980	      0.97274195	     -0.20725251	      5.42883528	     -3.43808586	     -1.70586610	      4.82158832	      0.08415259	      3.86134420	     -5.94339677	     -7.42760154	      0.52616818	     -8.42966280	     -0.56278085	      1.05795792	      0.01846485	      5.77259254	     -4.70611593	     -7.42760154	      1.01005053	      1.61582894	     -0.82915052	     33.85066917	     -1.38558968	     59.93240936	    127.72822998	     99.97212825	     28.95435313	     -0.82903299	     52.62670138	    125.59788778	    101.38004696
      0.10000000	     -4.84609609	     -1.16729985	     -4.51379963	      0.73468196	      0.97267964	     -0.20718338	      5.73256207	     -3.63075959	     -1.59813094	      5.19476083	      0.09066568	      4.16734658	     -6.07107088	     -7.44000113	      0.67930721	     -8.31400451	     -0.87823997	      1.15665987	      0.02018752	      5.81470327	     -4.12913771	     -7.44000113	      0.86782830	      1.55128916	     -0.92772173	     33.93166091	     -1.04249898	     60.35369274	    127.42649760	     99.19351606	     29.33318309	     -0.56666553	     53.43091473	    125.94628337	     99.76441158
      0.11666670	     -4.93644289	     -1.01871667	     -4.59640165	      0.73461794	      0.97270423	     -0.20727044	      5.95200921	     -3.78453246	     -1.47987613	      5.45830197	      0.09526534	      4.37572562	     -6.29946818	     -7.45931003	      0.80937486	     -8.18430721	     -1.01184443	      1.22414233	      0.02136531	      5.71510408	     -3.92257285	     -7.45931003	      0.71647470	      1.45883513	     -0.78287870	     33.87386000	     -0.93818267	     60.50223806	    127.47006112	     98.51226522	     29.47312982	     -0.38290338	     54.60576738	    126.36466294	     97.64515108
      0.13333330	     -4.99644343	     -0.88288300	     -4.67699661	      0.73421340	      0.97260418	     -0.20708615	      6.07125219	     -3.90644812	     -1.30380475	      5.59815088	      0.09770616	      4.55264095	     -6.45313563	     -7.47022438	      0.90045106	     -8.05494868	     -1.29253170	      1.28402429	      0.02241045	      5.65045304	     -3.57990405	     -7.47022438	      0.71517286	      1.41815423	     -0.74657380	     33.77726961	     -0.84007730	     60.42430160	    127.33213966	     97.80320573	     29.50384762	     -0.23904825	     54.75482169	    126.57969730	     96.28826684
